<mxfile host="Electron" agent="Mozilla/5.0 (Windows NT 10.0; Win64; x64) AppleWebKit/537.36 (KHTML, like Gecko) draw.io/24.7.8 Chrome/128.0.6613.36 Electron/32.0.1 Safari/537.36" version="24.7.8">
  <diagram name="Сторінка-1" id="xTLHWUKdXR8X0EgJbJ4l">
    <mxGraphModel dx="941" dy="644" grid="1" gridSize="10" guides="1" tooltips="1" connect="1" arrows="1" fold="1" page="1" pageScale="1" pageWidth="827" pageHeight="1169" math="0" shadow="0">
      <root>
        <mxCell id="0" />
        <mxCell id="1" parent="0" />
        <mxCell id="074VwIv8RnxLzK14YC_P-3" value="" style="edgeStyle=orthogonalEdgeStyle;rounded=0;orthogonalLoop=1;jettySize=auto;html=1;" parent="1" source="074VwIv8RnxLzK14YC_P-1" target="074VwIv8RnxLzK14YC_P-2" edge="1">
          <mxGeometry relative="1" as="geometry" />
        </mxCell>
        <mxCell id="074VwIv8RnxLzK14YC_P-1" value="Start" style="strokeWidth=2;html=1;shape=mxgraph.flowchart.start_1;whiteSpace=wrap;" parent="1" vertex="1">
          <mxGeometry x="364" y="20" width="100" height="60" as="geometry" />
        </mxCell>
        <mxCell id="074VwIv8RnxLzK14YC_P-5" value="" style="edgeStyle=orthogonalEdgeStyle;rounded=0;orthogonalLoop=1;jettySize=auto;html=1;" parent="1" source="074VwIv8RnxLzK14YC_P-2" target="074VwIv8RnxLzK14YC_P-4" edge="1">
          <mxGeometry relative="1" as="geometry" />
        </mxCell>
        <mxCell id="074VwIv8RnxLzK14YC_P-2" value="cin&amp;gt;&amp;gt;weather" style="shape=parallelogram;perimeter=parallelogramPerimeter;whiteSpace=wrap;html=1;fixedSize=1;strokeWidth=2;" parent="1" vertex="1">
          <mxGeometry x="354" y="160" width="120" height="60" as="geometry" />
        </mxCell>
        <mxCell id="074VwIv8RnxLzK14YC_P-7" value="" style="edgeStyle=orthogonalEdgeStyle;rounded=0;orthogonalLoop=1;jettySize=auto;html=1;exitX=0;exitY=0.5;exitDx=0;exitDy=0;" parent="1" source="074VwIv8RnxLzK14YC_P-4" target="074VwIv8RnxLzK14YC_P-6" edge="1">
          <mxGeometry relative="1" as="geometry" />
        </mxCell>
        <mxCell id="074VwIv8RnxLzK14YC_P-9" value="" style="edgeStyle=orthogonalEdgeStyle;rounded=0;orthogonalLoop=1;jettySize=auto;html=1;" parent="1" source="074VwIv8RnxLzK14YC_P-4" target="074VwIv8RnxLzK14YC_P-8" edge="1">
          <mxGeometry relative="1" as="geometry" />
        </mxCell>
        <mxCell id="074VwIv8RnxLzK14YC_P-4" value="weather==&quot;&lt;span style=&quot;background-color: initial;&quot;&gt;rainy&quot; or&lt;/span&gt;&lt;div&gt;weather==&quot;snowy&lt;span style=&quot;background-color: initial;&quot;&gt;&quot;&lt;/span&gt;&lt;span style=&quot;background-color: initial;&quot;&gt;&lt;br&gt;&lt;/span&gt;&lt;/div&gt;" style="rhombus;whiteSpace=wrap;html=1;strokeWidth=2;" parent="1" vertex="1">
          <mxGeometry x="335" y="250" width="157" height="80" as="geometry" />
        </mxCell>
        <mxCell id="074VwIv8RnxLzK14YC_P-14" style="edgeStyle=orthogonalEdgeStyle;rounded=0;orthogonalLoop=1;jettySize=auto;html=1;exitX=0.5;exitY=1;exitDx=0;exitDy=0;" parent="1" source="074VwIv8RnxLzK14YC_P-6" target="074VwIv8RnxLzK14YC_P-10" edge="1">
          <mxGeometry relative="1" as="geometry" />
        </mxCell>
        <mxCell id="074VwIv8RnxLzK14YC_P-6" value="cout&amp;gt;&amp;gt;&quot;&lt;span style=&quot;font-family: Consolas, &amp;quot;Courier New&amp;quot;, monospace; white-space: pre;&quot;&gt;&lt;font style=&quot;font-size: 11px;&quot;&gt;You &lt;/font&gt;&lt;/span&gt;&lt;div&gt;&lt;span style=&quot;font-family: Consolas, &amp;quot;Courier New&amp;quot;, monospace; white-space: pre;&quot;&gt;&lt;font style=&quot;font-size: 11px;&quot;&gt;should &lt;/font&gt;&lt;/span&gt;&lt;/div&gt;&lt;div&gt;&lt;span style=&quot;font-family: Consolas, &amp;quot;Courier New&amp;quot;, monospace; white-space: pre;&quot;&gt;&lt;font style=&quot;font-size: 11px;&quot;&gt;wear a coat&quot;&lt;/font&gt;&lt;/span&gt;&lt;/div&gt;" style="shape=parallelogram;perimeter=parallelogramPerimeter;whiteSpace=wrap;html=1;fixedSize=1;strokeWidth=2;" parent="1" vertex="1">
          <mxGeometry x="234" y="390" width="120" height="60" as="geometry" />
        </mxCell>
        <mxCell id="074VwIv8RnxLzK14YC_P-11" value="" style="edgeStyle=orthogonalEdgeStyle;rounded=0;orthogonalLoop=1;jettySize=auto;html=1;entryX=0.5;entryY=0;entryDx=0;entryDy=0;" parent="1" target="074VwIv8RnxLzK14YC_P-10" edge="1">
          <mxGeometry relative="1" as="geometry">
            <mxPoint x="580" y="450" as="sourcePoint" />
            <Array as="points">
              <mxPoint x="580" y="480" />
              <mxPoint x="467" y="480" />
            </Array>
          </mxGeometry>
        </mxCell>
        <mxCell id="074VwIv8RnxLzK14YC_P-8" value="&lt;div style=&quot;font-family: Consolas, &amp;quot;Courier New&amp;quot;, monospace; line-height: 19px; white-space: pre;&quot;&gt;&lt;span style=&quot;background-color: rgb(255, 255, 255);&quot;&gt;cout&amp;lt;&amp;lt;&quot;No&lt;/span&gt;&lt;/div&gt;&lt;div style=&quot;font-family: Consolas, &amp;quot;Courier New&amp;quot;, monospace; line-height: 19px; white-space: pre;&quot;&gt;&lt;span style=&quot;background-color: rgb(255, 255, 255);&quot;&gt; need&lt;/span&gt;&lt;span style=&quot;background-color: rgb(255, 255, 255);&quot;&gt; for a &lt;/span&gt;&lt;/div&gt;&lt;div style=&quot;font-family: Consolas, &amp;quot;Courier New&amp;quot;, monospace; line-height: 19px; white-space: pre;&quot;&gt;&lt;span style=&quot;background-color: rgb(255, 255, 255);&quot;&gt;coat today&quot;&lt;/span&gt;&lt;/div&gt;" style="shape=parallelogram;perimeter=parallelogramPerimeter;whiteSpace=wrap;html=1;fixedSize=1;strokeWidth=2;" parent="1" vertex="1">
          <mxGeometry x="520" y="390" width="120" height="60" as="geometry" />
        </mxCell>
        <mxCell id="074VwIv8RnxLzK14YC_P-16" value="" style="edgeStyle=orthogonalEdgeStyle;rounded=0;orthogonalLoop=1;jettySize=auto;html=1;" parent="1" source="074VwIv8RnxLzK14YC_P-10" target="074VwIv8RnxLzK14YC_P-15" edge="1">
          <mxGeometry relative="1" as="geometry" />
        </mxCell>
        <mxCell id="074VwIv8RnxLzK14YC_P-18" value="" style="edgeStyle=orthogonalEdgeStyle;rounded=0;orthogonalLoop=1;jettySize=auto;html=1;" parent="1" source="074VwIv8RnxLzK14YC_P-10" target="074VwIv8RnxLzK14YC_P-17" edge="1">
          <mxGeometry relative="1" as="geometry" />
        </mxCell>
        <mxCell id="074VwIv8RnxLzK14YC_P-10" value="weather==&quot;sunny&quot;" style="rhombus;whiteSpace=wrap;html=1;strokeWidth=2;" parent="1" vertex="1">
          <mxGeometry x="394" y="510" width="146" height="80" as="geometry" />
        </mxCell>
        <mxCell id="074VwIv8RnxLzK14YC_P-35" value="" style="edgeStyle=orthogonalEdgeStyle;rounded=0;orthogonalLoop=1;jettySize=auto;html=1;exitX=0.5;exitY=1;exitDx=0;exitDy=0;" parent="1" source="074VwIv8RnxLzK14YC_P-15" target="074VwIv8RnxLzK14YC_P-34" edge="1">
          <mxGeometry relative="1" as="geometry">
            <mxPoint x="240" y="710" as="sourcePoint" />
          </mxGeometry>
        </mxCell>
        <mxCell id="074VwIv8RnxLzK14YC_P-15" value="&lt;div style=&quot;font-family: Consolas, &amp;quot;Courier New&amp;quot;, monospace; font-size: 14px; line-height: 19px; white-space: pre;&quot;&gt;cout&amp;lt;&amp;lt;&quot;A &lt;/div&gt;&lt;div style=&quot;font-family: Consolas, &amp;quot;Courier New&amp;quot;, monospace; font-size: 14px; line-height: 19px; white-space: pre;&quot;&gt;great day&lt;span style=&quot;background-color: initial;&quot;&gt; for&lt;/span&gt;&lt;/div&gt;&lt;div style=&quot;font-family: Consolas, &amp;quot;Courier New&amp;quot;, monospace; font-size: 14px; line-height: 19px; white-space: pre;&quot;&gt;&lt;span style=&quot;background-color: initial;&quot;&gt; a picnic!&lt;/span&gt;&lt;/div&gt;" style="shape=parallelogram;perimeter=parallelogramPerimeter;whiteSpace=wrap;html=1;fixedSize=1;strokeWidth=2;" parent="1" vertex="1">
          <mxGeometry x="210" y="620" width="130" height="60" as="geometry" />
        </mxCell>
        <mxCell id="074VwIv8RnxLzK14YC_P-20" value="" style="edgeStyle=orthogonalEdgeStyle;rounded=0;orthogonalLoop=1;jettySize=auto;html=1;" parent="1" source="074VwIv8RnxLzK14YC_P-17" target="074VwIv8RnxLzK14YC_P-19" edge="1">
          <mxGeometry relative="1" as="geometry" />
        </mxCell>
        <mxCell id="074VwIv8RnxLzK14YC_P-22" value="" style="edgeStyle=orthogonalEdgeStyle;rounded=0;orthogonalLoop=1;jettySize=auto;html=1;" parent="1" source="074VwIv8RnxLzK14YC_P-17" target="074VwIv8RnxLzK14YC_P-21" edge="1">
          <mxGeometry relative="1" as="geometry" />
        </mxCell>
        <mxCell id="074VwIv8RnxLzK14YC_P-17" value="weather==&quot;rainy&quot;" style="rhombus;whiteSpace=wrap;html=1;strokeWidth=2;" parent="1" vertex="1">
          <mxGeometry x="570" y="610" width="146" height="80" as="geometry" />
        </mxCell>
        <mxCell id="074VwIv8RnxLzK14YC_P-36" style="edgeStyle=orthogonalEdgeStyle;rounded=0;orthogonalLoop=1;jettySize=auto;html=1;entryX=0.5;entryY=0;entryDx=0;entryDy=0;exitX=0.5;exitY=1;exitDx=0;exitDy=0;" parent="1" edge="1">
          <mxGeometry relative="1" as="geometry">
            <mxPoint x="483.5" y="765" as="sourcePoint" />
            <mxPoint x="689" y="1345" as="targetPoint" />
            <Array as="points">
              <mxPoint x="483" y="1015" />
              <mxPoint x="689" y="1015" />
            </Array>
          </mxGeometry>
        </mxCell>
        <mxCell id="074VwIv8RnxLzK14YC_P-19" value="&lt;div style=&quot;font-family: Consolas, &amp;quot;Courier New&amp;quot;, monospace; font-size: 14px; line-height: 19px; white-space: pre;&quot;&gt;cout&amp;lt;&amp;lt;&lt;span style=&quot;background-color: initial;&quot;&gt;&quot;Perfect &lt;/span&gt;&lt;/div&gt;&lt;div style=&quot;font-family: Consolas, &amp;quot;Courier New&amp;quot;, monospace; font-size: 14px; line-height: 19px; white-space: pre;&quot;&gt;weather to read&lt;/div&gt;&lt;div style=&quot;font-family: Consolas, &amp;quot;Courier New&amp;quot;, monospace; font-size: 14px; line-height: 19px; white-space: pre;&quot;&gt; a book inside!&quot;&lt;/div&gt;" style="shape=parallelogram;perimeter=parallelogramPerimeter;whiteSpace=wrap;html=1;fixedSize=1;strokeWidth=2;" parent="1" vertex="1">
          <mxGeometry x="407" y="710" width="153" height="60" as="geometry" />
        </mxCell>
        <mxCell id="074VwIv8RnxLzK14YC_P-24" value="" style="edgeStyle=orthogonalEdgeStyle;rounded=0;orthogonalLoop=1;jettySize=auto;html=1;" parent="1" source="074VwIv8RnxLzK14YC_P-21" target="074VwIv8RnxLzK14YC_P-23" edge="1">
          <mxGeometry relative="1" as="geometry" />
        </mxCell>
        <mxCell id="074VwIv8RnxLzK14YC_P-26" value="" style="edgeStyle=orthogonalEdgeStyle;rounded=0;orthogonalLoop=1;jettySize=auto;html=1;" parent="1" source="074VwIv8RnxLzK14YC_P-21" target="074VwIv8RnxLzK14YC_P-25" edge="1">
          <mxGeometry relative="1" as="geometry" />
        </mxCell>
        <mxCell id="074VwIv8RnxLzK14YC_P-21" value="weather==&quot;cloudy&quot;" style="rhombus;whiteSpace=wrap;html=1;strokeWidth=2;" parent="1" vertex="1">
          <mxGeometry x="760" y="700" width="146" height="80" as="geometry" />
        </mxCell>
        <mxCell id="074VwIv8RnxLzK14YC_P-37" style="edgeStyle=orthogonalEdgeStyle;rounded=0;orthogonalLoop=1;jettySize=auto;html=1;entryX=0.5;entryY=0;entryDx=0;entryDy=0;" parent="1" source="074VwIv8RnxLzK14YC_P-23" target="074VwIv8RnxLzK14YC_P-34" edge="1">
          <mxGeometry relative="1" as="geometry" />
        </mxCell>
        <mxCell id="074VwIv8RnxLzK14YC_P-23" value="&lt;div style=&quot;font-family: Consolas, &amp;quot;Courier New&amp;quot;, monospace; font-size: 14px; line-height: 19px; white-space: pre;&quot;&gt;cout&amp;lt;&amp;lt;&quot;Maybe &lt;/div&gt;&lt;div style=&quot;font-family: Consolas, &amp;quot;Courier New&amp;quot;, monospace; font-size: 14px; line-height: 19px; white-space: pre;&quot;&gt;visit a museum?&quot;&lt;/div&gt;" style="shape=parallelogram;perimeter=parallelogramPerimeter;whiteSpace=wrap;html=1;fixedSize=1;strokeWidth=2;" parent="1" vertex="1">
          <mxGeometry x="619" y="790" width="140" height="60" as="geometry" />
        </mxCell>
        <mxCell id="074VwIv8RnxLzK14YC_P-28" value="" style="edgeStyle=orthogonalEdgeStyle;rounded=0;orthogonalLoop=1;jettySize=auto;html=1;" parent="1" source="074VwIv8RnxLzK14YC_P-25" target="074VwIv8RnxLzK14YC_P-27" edge="1">
          <mxGeometry relative="1" as="geometry" />
        </mxCell>
        <mxCell id="074VwIv8RnxLzK14YC_P-30" value="" style="edgeStyle=orthogonalEdgeStyle;rounded=0;orthogonalLoop=1;jettySize=auto;html=1;" parent="1" source="074VwIv8RnxLzK14YC_P-25" target="074VwIv8RnxLzK14YC_P-29" edge="1">
          <mxGeometry relative="1" as="geometry" />
        </mxCell>
        <mxCell id="074VwIv8RnxLzK14YC_P-25" value="weather==&quot;snowy&quot;" style="rhombus;whiteSpace=wrap;html=1;strokeWidth=2;" parent="1" vertex="1">
          <mxGeometry x="950" y="790" width="146" height="80" as="geometry" />
        </mxCell>
        <mxCell id="074VwIv8RnxLzK14YC_P-38" style="edgeStyle=orthogonalEdgeStyle;rounded=0;orthogonalLoop=1;jettySize=auto;html=1;entryX=0.5;entryY=0;entryDx=0;entryDy=0;exitX=0.5;exitY=1;exitDx=0;exitDy=0;" parent="1" source="074VwIv8RnxLzK14YC_P-27" target="074VwIv8RnxLzK14YC_P-34" edge="1">
          <mxGeometry relative="1" as="geometry" />
        </mxCell>
        <mxCell id="074VwIv8RnxLzK14YC_P-27" value="&lt;div style=&quot;font-family: Consolas, &amp;quot;Courier New&amp;quot;, monospace; font-weight: normal; font-size: 14px; line-height: 19px; white-space: pre;&quot;&gt;&lt;div&gt;cout&amp;lt;&amp;lt;&quot;How&lt;/div&gt;&lt;div&gt; about making&lt;/div&gt;&lt;div&gt; a snowman?&quot;&lt;/div&gt;&lt;/div&gt;" style="shape=parallelogram;perimeter=parallelogramPerimeter;whiteSpace=wrap;html=1;fixedSize=1;strokeWidth=2;" parent="1" vertex="1">
          <mxGeometry x="779" y="890" width="160" height="70" as="geometry" />
        </mxCell>
        <mxCell id="074VwIv8RnxLzK14YC_P-32" value="" style="edgeStyle=orthogonalEdgeStyle;rounded=0;orthogonalLoop=1;jettySize=auto;html=1;" parent="1" source="074VwIv8RnxLzK14YC_P-29" target="074VwIv8RnxLzK14YC_P-31" edge="1">
          <mxGeometry relative="1" as="geometry" />
        </mxCell>
        <mxCell id="074VwIv8RnxLzK14YC_P-41" style="edgeStyle=orthogonalEdgeStyle;rounded=0;orthogonalLoop=1;jettySize=auto;html=1;exitX=1;exitY=0.5;exitDx=0;exitDy=0;" parent="1" source="074VwIv8RnxLzK14YC_P-29" target="074VwIv8RnxLzK14YC_P-34" edge="1">
          <mxGeometry relative="1" as="geometry" />
        </mxCell>
        <mxCell id="074VwIv8RnxLzK14YC_P-29" value="weather==&quot;windy&quot;" style="rhombus;whiteSpace=wrap;html=1;strokeWidth=2;" parent="1" vertex="1">
          <mxGeometry x="1110" y="880" width="146" height="80" as="geometry" />
        </mxCell>
        <mxCell id="074VwIv8RnxLzK14YC_P-40" style="edgeStyle=orthogonalEdgeStyle;rounded=0;orthogonalLoop=1;jettySize=auto;html=1;exitX=0.5;exitY=1;exitDx=0;exitDy=0;" parent="1" source="074VwIv8RnxLzK14YC_P-31" target="074VwIv8RnxLzK14YC_P-34" edge="1">
          <mxGeometry relative="1" as="geometry" />
        </mxCell>
        <mxCell id="074VwIv8RnxLzK14YC_P-31" value="&lt;div style=&quot;font-family: Consolas, &amp;quot;Courier New&amp;quot;, monospace; font-size: 14px; line-height: 19px; white-space: pre;&quot;&gt;cout&amp;lt;&amp;lt;&quot;Fly a kite&lt;/div&gt;&lt;div style=&quot;font-family: Consolas, &amp;quot;Courier New&amp;quot;, monospace; font-size: 14px; line-height: 19px; white-space: pre;&quot;&gt; if you have one!&quot;&lt;/div&gt;" style="shape=parallelogram;perimeter=parallelogramPerimeter;whiteSpace=wrap;html=1;fixedSize=1;strokeWidth=2;" parent="1" vertex="1">
          <mxGeometry x="900" y="1010" width="163" height="60" as="geometry" />
        </mxCell>
        <mxCell id="074VwIv8RnxLzK14YC_P-45" value="" style="edgeStyle=orthogonalEdgeStyle;rounded=0;orthogonalLoop=1;jettySize=auto;html=1;" parent="1" source="074VwIv8RnxLzK14YC_P-34" target="074VwIv8RnxLzK14YC_P-44" edge="1">
          <mxGeometry relative="1" as="geometry" />
        </mxCell>
        <mxCell id="074VwIv8RnxLzK14YC_P-34" value="switch" style="rhombus;whiteSpace=wrap;html=1;strokeWidth=2;" parent="1" vertex="1">
          <mxGeometry x="649" y="1350" width="80" height="80" as="geometry" />
        </mxCell>
        <mxCell id="074VwIv8RnxLzK14YC_P-47" value="" style="edgeStyle=orthogonalEdgeStyle;rounded=0;orthogonalLoop=1;jettySize=auto;html=1;" parent="1" source="074VwIv8RnxLzK14YC_P-44" target="074VwIv8RnxLzK14YC_P-46" edge="1">
          <mxGeometry relative="1" as="geometry" />
        </mxCell>
        <mxCell id="074VwIv8RnxLzK14YC_P-50" value="" style="edgeStyle=orthogonalEdgeStyle;rounded=0;orthogonalLoop=1;jettySize=auto;html=1;" parent="1" source="074VwIv8RnxLzK14YC_P-44" target="074VwIv8RnxLzK14YC_P-49" edge="1">
          <mxGeometry relative="1" as="geometry" />
        </mxCell>
        <mxCell id="074VwIv8RnxLzK14YC_P-44" value="weathers=0" style="whiteSpace=wrap;html=1;strokeWidth=2;" parent="1" vertex="1">
          <mxGeometry x="629" y="1520" width="120" height="60" as="geometry" />
        </mxCell>
        <mxCell id="074VwIv8RnxLzK14YC_P-66" value="" style="edgeStyle=orthogonalEdgeStyle;rounded=0;orthogonalLoop=1;jettySize=auto;html=1;" parent="1" source="074VwIv8RnxLzK14YC_P-46" target="074VwIv8RnxLzK14YC_P-65" edge="1">
          <mxGeometry relative="1" as="geometry" />
        </mxCell>
        <mxCell id="074VwIv8RnxLzK14YC_P-46" value="&lt;div style=&quot;font-family: Consolas, &amp;quot;Courier New&amp;quot;, monospace; font-size: 14px; line-height: 19px; white-space: pre;&quot;&gt;cout&amp;lt;&amp;lt;&quot;Wear&lt;/div&gt;&lt;div style=&quot;font-family: Consolas, &amp;quot;Courier New&amp;quot;, monospace; font-size: 14px; line-height: 19px; white-space: pre;&quot;&gt; your favorite&lt;/div&gt;&lt;div style=&quot;font-family: Consolas, &amp;quot;Courier New&amp;quot;, monospace; font-size: 14px; line-height: 19px; white-space: pre;&quot;&gt; sneakers!&quot;&lt;/div&gt;" style="shape=parallelogram;perimeter=parallelogramPerimeter;whiteSpace=wrap;html=1;fixedSize=1;strokeWidth=2;" parent="1" vertex="1">
          <mxGeometry x="829" y="1520" width="161" height="60" as="geometry" />
        </mxCell>
        <mxCell id="074VwIv8RnxLzK14YC_P-52" value="" style="edgeStyle=orthogonalEdgeStyle;rounded=0;orthogonalLoop=1;jettySize=auto;html=1;" parent="1" source="074VwIv8RnxLzK14YC_P-49" target="074VwIv8RnxLzK14YC_P-51" edge="1">
          <mxGeometry relative="1" as="geometry" />
        </mxCell>
        <mxCell id="074VwIv8RnxLzK14YC_P-54" value="" style="edgeStyle=orthogonalEdgeStyle;rounded=0;orthogonalLoop=1;jettySize=auto;html=1;" parent="1" source="074VwIv8RnxLzK14YC_P-49" target="074VwIv8RnxLzK14YC_P-53" edge="1">
          <mxGeometry relative="1" as="geometry" />
        </mxCell>
        <mxCell id="074VwIv8RnxLzK14YC_P-49" value="weathers=1" style="whiteSpace=wrap;html=1;strokeWidth=2;" parent="1" vertex="1">
          <mxGeometry x="629" y="1660" width="120" height="60" as="geometry" />
        </mxCell>
        <mxCell id="074VwIv8RnxLzK14YC_P-67" style="edgeStyle=orthogonalEdgeStyle;rounded=0;orthogonalLoop=1;jettySize=auto;html=1;exitX=1;exitY=0.5;exitDx=0;exitDy=0;entryX=0.5;entryY=0;entryDx=0;entryDy=0;" parent="1" source="074VwIv8RnxLzK14YC_P-51" target="074VwIv8RnxLzK14YC_P-65" edge="1">
          <mxGeometry relative="1" as="geometry" />
        </mxCell>
        <mxCell id="074VwIv8RnxLzK14YC_P-51" value="&lt;div style=&quot;font-family: Consolas, &amp;quot;Courier New&amp;quot;, monospace; font-size: 14px; line-height: 19px; white-space: pre;&quot;&gt;cout&amp;lt;&amp;lt;&quot;Rain&lt;/div&gt;&lt;div style=&quot;font-family: Consolas, &amp;quot;Courier New&amp;quot;, monospace; font-size: 14px; line-height: 19px; white-space: pre;&quot;&gt; boots are a&lt;/div&gt;&lt;div style=&quot;font-family: Consolas, &amp;quot;Courier New&amp;quot;, monospace; font-size: 14px; line-height: 19px; white-space: pre;&quot;&gt; good idea!&quot;&lt;/div&gt;" style="shape=parallelogram;perimeter=parallelogramPerimeter;whiteSpace=wrap;html=1;fixedSize=1;strokeWidth=2;" parent="1" vertex="1">
          <mxGeometry x="829" y="1660" width="141" height="60" as="geometry" />
        </mxCell>
        <mxCell id="074VwIv8RnxLzK14YC_P-56" value="" style="edgeStyle=orthogonalEdgeStyle;rounded=0;orthogonalLoop=1;jettySize=auto;html=1;" parent="1" source="074VwIv8RnxLzK14YC_P-53" target="074VwIv8RnxLzK14YC_P-55" edge="1">
          <mxGeometry relative="1" as="geometry" />
        </mxCell>
        <mxCell id="074VwIv8RnxLzK14YC_P-60" value="" style="edgeStyle=orthogonalEdgeStyle;rounded=0;orthogonalLoop=1;jettySize=auto;html=1;" parent="1" source="074VwIv8RnxLzK14YC_P-53" target="074VwIv8RnxLzK14YC_P-59" edge="1">
          <mxGeometry relative="1" as="geometry" />
        </mxCell>
        <mxCell id="074VwIv8RnxLzK14YC_P-53" value="weathers=2" style="whiteSpace=wrap;html=1;strokeWidth=2;" parent="1" vertex="1">
          <mxGeometry x="629" y="1800" width="120" height="60" as="geometry" />
        </mxCell>
        <mxCell id="074VwIv8RnxLzK14YC_P-58" value="" style="edgeStyle=orthogonalEdgeStyle;rounded=0;orthogonalLoop=1;jettySize=auto;html=1;" parent="1" source="074VwIv8RnxLzK14YC_P-55" target="074VwIv8RnxLzK14YC_P-57" edge="1">
          <mxGeometry relative="1" as="geometry" />
        </mxCell>
        <mxCell id="074VwIv8RnxLzK14YC_P-62" value="" style="edgeStyle=orthogonalEdgeStyle;rounded=0;orthogonalLoop=1;jettySize=auto;html=1;" parent="1" source="074VwIv8RnxLzK14YC_P-55" target="074VwIv8RnxLzK14YC_P-61" edge="1">
          <mxGeometry relative="1" as="geometry" />
        </mxCell>
        <mxCell id="074VwIv8RnxLzK14YC_P-55" value="weathers=3" style="whiteSpace=wrap;html=1;strokeWidth=2;" parent="1" vertex="1">
          <mxGeometry x="629" y="1940" width="120" height="60" as="geometry" />
        </mxCell>
        <mxCell id="074VwIv8RnxLzK14YC_P-64" value="" style="edgeStyle=orthogonalEdgeStyle;rounded=0;orthogonalLoop=1;jettySize=auto;html=1;" parent="1" source="074VwIv8RnxLzK14YC_P-57" target="074VwIv8RnxLzK14YC_P-63" edge="1">
          <mxGeometry relative="1" as="geometry" />
        </mxCell>
        <mxCell id="074VwIv8RnxLzK14YC_P-71" style="edgeStyle=orthogonalEdgeStyle;rounded=0;orthogonalLoop=1;jettySize=auto;html=1;" parent="1" source="074VwIv8RnxLzK14YC_P-57" target="074VwIv8RnxLzK14YC_P-65" edge="1">
          <mxGeometry relative="1" as="geometry">
            <Array as="points">
              <mxPoint x="689" y="2210" />
              <mxPoint x="1241" y="2210" />
            </Array>
          </mxGeometry>
        </mxCell>
        <mxCell id="074VwIv8RnxLzK14YC_P-57" value="weathers=4" style="whiteSpace=wrap;html=1;strokeWidth=2;" parent="1" vertex="1">
          <mxGeometry x="629" y="2080" width="120" height="60" as="geometry" />
        </mxCell>
        <mxCell id="074VwIv8RnxLzK14YC_P-68" style="edgeStyle=orthogonalEdgeStyle;rounded=0;orthogonalLoop=1;jettySize=auto;html=1;exitX=1;exitY=0.5;exitDx=0;exitDy=0;" parent="1" source="074VwIv8RnxLzK14YC_P-59" edge="1">
          <mxGeometry relative="1" as="geometry">
            <mxPoint x="1240" y="2290" as="targetPoint" />
          </mxGeometry>
        </mxCell>
        <mxCell id="074VwIv8RnxLzK14YC_P-59" value="&lt;div style=&quot;font-family: Consolas, &amp;quot;Courier New&amp;quot;, monospace; font-size: 14px; line-height: 19px; white-space: pre;&quot;&gt;cout&amp;lt;&amp;lt;&quot;Today,&lt;/div&gt;&lt;div style=&quot;font-family: Consolas, &amp;quot;Courier New&amp;quot;, monospace; font-size: 14px; line-height: 19px; white-space: pre;&quot;&gt; any shoe is&lt;/div&gt;&lt;div style=&quot;font-family: Consolas, &amp;quot;Courier New&amp;quot;, monospace; font-size: 14px; line-height: 19px; white-space: pre;&quot;&gt; suitable&quot;&lt;/div&gt;" style="shape=parallelogram;perimeter=parallelogramPerimeter;whiteSpace=wrap;html=1;fixedSize=1;strokeWidth=2;" parent="1" vertex="1">
          <mxGeometry x="829" y="1800" width="141" height="60" as="geometry" />
        </mxCell>
        <mxCell id="074VwIv8RnxLzK14YC_P-69" style="edgeStyle=orthogonalEdgeStyle;rounded=0;orthogonalLoop=1;jettySize=auto;html=1;exitX=1;exitY=0.5;exitDx=0;exitDy=0;" parent="1" source="074VwIv8RnxLzK14YC_P-61" edge="1">
          <mxGeometry relative="1" as="geometry">
            <mxPoint x="1240" y="2300" as="targetPoint" />
          </mxGeometry>
        </mxCell>
        <mxCell id="074VwIv8RnxLzK14YC_P-61" value="&lt;div style=&quot;font-family: Consolas, &amp;quot;Courier New&amp;quot;, monospace; font-size: 14px; line-height: 19px; white-space: pre;&quot;&gt;cout &amp;lt;&amp;lt;&quot;Snow&lt;/div&gt;&lt;div style=&quot;font-family: Consolas, &amp;quot;Courier New&amp;quot;, monospace; font-size: 14px; line-height: 19px; white-space: pre;&quot;&gt; boots will&lt;/div&gt;&lt;div style=&quot;font-family: Consolas, &amp;quot;Courier New&amp;quot;, monospace; font-size: 14px; line-height: 19px; white-space: pre;&quot;&gt; keep your feet&lt;/div&gt;&lt;div style=&quot;font-family: Consolas, &amp;quot;Courier New&amp;quot;, monospace; font-size: 14px; line-height: 19px; white-space: pre;&quot;&gt; warm!&quot;&lt;/div&gt;" style="shape=parallelogram;perimeter=parallelogramPerimeter;whiteSpace=wrap;html=1;fixedSize=1;strokeWidth=2;" parent="1" vertex="1">
          <mxGeometry x="829" y="1930" width="161" height="80" as="geometry" />
        </mxCell>
        <mxCell id="074VwIv8RnxLzK14YC_P-70" style="edgeStyle=orthogonalEdgeStyle;rounded=0;orthogonalLoop=1;jettySize=auto;html=1;exitX=1;exitY=0.5;exitDx=0;exitDy=0;" parent="1" source="074VwIv8RnxLzK14YC_P-63" edge="1">
          <mxGeometry relative="1" as="geometry">
            <mxPoint x="1240" y="2300" as="targetPoint" />
          </mxGeometry>
        </mxCell>
        <mxCell id="074VwIv8RnxLzK14YC_P-63" value="&lt;div style=&quot;font-family: Consolas, &amp;quot;Courier New&amp;quot;, monospace; font-size: 14px; line-height: 19px; white-space: pre;&quot;&gt;cout&amp;lt;&amp;lt;&quot;Wear&lt;/div&gt;&lt;div style=&quot;font-family: Consolas, &amp;quot;Courier New&amp;quot;, monospace; font-size: 14px; line-height: 19px; white-space: pre;&quot;&gt; something &lt;/div&gt;&lt;div style=&quot;font-family: Consolas, &amp;quot;Courier New&amp;quot;, monospace; font-size: 14px; line-height: 19px; white-space: pre;&quot;&gt;sturdy!&quot;&lt;/div&gt;" style="shape=parallelogram;perimeter=parallelogramPerimeter;whiteSpace=wrap;html=1;fixedSize=1;strokeWidth=2;" parent="1" vertex="1">
          <mxGeometry x="829" y="2080" width="120" height="60" as="geometry" />
        </mxCell>
        <mxCell id="074VwIv8RnxLzK14YC_P-65" value="end" style="ellipse;whiteSpace=wrap;html=1;strokeWidth=2;" parent="1" vertex="1">
          <mxGeometry x="1161" y="2300" width="159.5" height="60" as="geometry" />
        </mxCell>
      </root>
    </mxGraphModel>
  </diagram>
</mxfile>
